# 3ds Max Wavefront OBJ Exporter v0.97b - (c)2007 guruware
# File Created: 03.06.2022 16:20:58

#mtllib ddd.mtl

#
# object Box001
#

v  -14.0556 0.0741 -14.0926
v  -14.0880 0.0417 -14.1852
v  -13.9630 0.0000 -14.1852
v  -13.9630 0.0417 -14.0602
v  -14.0880 0.0417 -14.3519
v  -13.9630 0.0000 -14.3519
v  -13.7963 0.0000 -14.3519
v  -13.7963 0.0000 -14.1852
v  -13.7963 0.0417 -14.0602
v  -13.6296 0.0000 -14.1852
v  -13.6296 0.0417 -14.0602
v  -13.6296 0.0000 -14.3519
v  -13.4630 0.0000 -14.3519
v  -13.4630 0.0000 -14.1852
v  -13.4630 0.0417 -14.0602
v  -13.2963 0.0000 -14.1852
v  -13.2963 0.0417 -14.0602
v  -13.2963 0.0000 -14.3519
v  -13.1713 0.0417 -14.3519
v  -13.1713 0.0417 -14.1852
v  -13.2037 0.0741 -14.0926
v  -14.0880 0.0417 -14.5185
v  -13.9630 0.0000 -14.5185
v  -14.0880 0.0417 -14.6852
v  -13.9630 0.0000 -14.6852
v  -13.7963 0.0000 -14.6852
v  -13.7963 0.0000 -14.5185
v  -13.6296 0.0000 -14.5185
v  -13.6296 0.0000 -14.6852
v  -13.4630 0.0000 -14.6852
v  -13.4630 0.0000 -14.5185
v  -13.2963 0.0000 -14.5185
v  -13.2963 0.0000 -14.6852
v  -13.1713 0.0417 -14.6852
v  -13.1713 0.0417 -14.5185
v  -14.0880 0.0417 -14.8519
v  -13.9630 0.0000 -14.8519
v  -14.0556 0.0741 -14.9444
v  -13.9630 0.0417 -14.9769
v  -13.7963 0.0417 -14.9769
v  -13.7963 0.0000 -14.8519
v  -13.6296 0.0000 -14.8519
v  -13.6296 0.0417 -14.9769
v  -13.4630 0.0417 -14.9769
v  -13.4630 0.0000 -14.8519
v  -13.2963 0.0000 -14.8519
v  -13.2963 0.0417 -14.9769
v  -13.2037 0.0741 -14.9444
v  -13.1713 0.0417 -14.8519
v  -14.0556 0.9259 -14.0926
v  -13.9630 0.9583 -14.0602
v  -13.9630 1.0000 -14.1852
v  -14.0880 0.9583 -14.1852
v  -13.7963 0.9583 -14.0602
v  -13.7963 1.0000 -14.1852
v  -13.7963 1.0000 -14.3519
v  -13.9630 1.0000 -14.3519
v  -14.0880 0.9583 -14.3519
v  -13.6296 0.9583 -14.0602
v  -13.6296 1.0000 -14.1852
v  -13.4630 0.9583 -14.0602
v  -13.4630 1.0000 -14.1852
v  -13.4630 1.0000 -14.3519
v  -13.6296 1.0000 -14.3519
v  -13.2963 0.9583 -14.0602
v  -13.2963 1.0000 -14.1852
v  -13.2037 0.9259 -14.0926
v  -13.1713 0.9583 -14.1852
v  -13.1713 0.9583 -14.3519
v  -13.2963 1.0000 -14.3519
v  -13.9630 1.0000 -14.5185
v  -14.0880 0.9583 -14.5185
v  -13.7963 1.0000 -14.5185
v  -13.7963 1.0000 -14.6852
v  -13.9630 1.0000 -14.6852
v  -14.0880 0.9583 -14.6852
v  -13.6296 1.0000 -14.5185
v  -13.4630 1.0000 -14.5185
v  -13.4630 1.0000 -14.6852
v  -13.6296 1.0000 -14.6852
v  -13.2963 1.0000 -14.5185
v  -13.1713 0.9583 -14.5185
v  -13.1713 0.9583 -14.6852
v  -13.2963 1.0000 -14.6852
v  -13.9630 1.0000 -14.8519
v  -14.0880 0.9583 -14.8519
v  -13.7963 1.0000 -14.8519
v  -13.7963 0.9583 -14.9769
v  -13.9630 0.9583 -14.9769
v  -14.0556 0.9259 -14.9444
v  -13.6296 1.0000 -14.8519
v  -13.4630 1.0000 -14.8519
v  -13.4630 0.9583 -14.9769
v  -13.6296 0.9583 -14.9769
v  -13.2963 1.0000 -14.8519
v  -13.1713 0.9583 -14.8519
v  -13.2037 0.9259 -14.9444
v  -13.2963 0.9583 -14.9769
v  -13.9630 0.1667 -14.0185
v  -14.0880 0.1667 -14.0602
v  -13.7963 0.1667 -14.0185
v  -13.7963 0.3333 -14.0185
v  -13.9630 0.3333 -14.0185
v  -14.0880 0.3333 -14.0602
v  -13.6296 0.1667 -14.0185
v  -13.4630 0.1667 -14.0185
v  -13.4630 0.3333 -14.0185
v  -13.6296 0.3333 -14.0185
v  -13.2963 0.1667 -14.0185
v  -13.1713 0.1667 -14.0602
v  -13.1713 0.3333 -14.0602
v  -13.2963 0.3333 -14.0185
v  -13.9630 0.5000 -14.0185
v  -14.0880 0.5000 -14.0602
v  -13.7963 0.5000 -14.0185
v  -13.7963 0.6667 -14.0185
v  -13.9630 0.6667 -14.0185
v  -14.0880 0.6667 -14.0602
v  -13.6296 0.5000 -14.0185
v  -13.4630 0.5000 -14.0185
v  -13.4630 0.6667 -14.0185
v  -13.6296 0.6667 -14.0185
v  -13.2963 0.5000 -14.0185
v  -13.1713 0.5000 -14.0602
v  -13.1713 0.6667 -14.0602
v  -13.2963 0.6667 -14.0185
v  -13.9630 0.8333 -14.0185
v  -14.0880 0.8333 -14.0602
v  -13.7963 0.8333 -14.0185
v  -13.6296 0.8333 -14.0185
v  -13.4630 0.8333 -14.0185
v  -13.2963 0.8333 -14.0185
v  -13.1713 0.8333 -14.0602
v  -13.1296 0.1667 -14.1852
v  -13.1296 0.1667 -14.3519
v  -13.1296 0.3333 -14.3519
v  -13.1296 0.3333 -14.1852
v  -13.1296 0.1667 -14.5185
v  -13.1296 0.1667 -14.6852
v  -13.1296 0.3333 -14.6852
v  -13.1296 0.3333 -14.5185
v  -13.1296 0.1667 -14.8519
v  -13.1713 0.1667 -14.9769
v  -13.1713 0.3333 -14.9769
v  -13.1296 0.3333 -14.8519
v  -13.1296 0.5000 -14.1852
v  -13.1296 0.5000 -14.3519
v  -13.1296 0.6667 -14.3519
v  -13.1296 0.6667 -14.1852
v  -13.1296 0.5000 -14.5185
v  -13.1296 0.5000 -14.6852
v  -13.1296 0.6667 -14.6852
v  -13.1296 0.6667 -14.5185
v  -13.1296 0.5000 -14.8519
v  -13.1713 0.5000 -14.9769
v  -13.1713 0.6667 -14.9769
v  -13.1296 0.6667 -14.8519
v  -13.1296 0.8333 -14.1852
v  -13.1296 0.8333 -14.3519
v  -13.1296 0.8333 -14.5185
v  -13.1296 0.8333 -14.6852
v  -13.1296 0.8333 -14.8519
v  -13.1713 0.8333 -14.9769
v  -13.2963 0.1667 -15.0185
v  -13.4630 0.1667 -15.0185
v  -13.4630 0.3333 -15.0185
v  -13.2963 0.3333 -15.0185
v  -13.6296 0.1667 -15.0185
v  -13.7963 0.1667 -15.0185
v  -13.7963 0.3333 -15.0185
v  -13.6296 0.3333 -15.0185
v  -13.9630 0.1667 -15.0185
v  -14.0880 0.1667 -14.9769
v  -14.0880 0.3333 -14.9769
v  -13.9630 0.3333 -15.0185
v  -13.2963 0.5000 -15.0185
v  -13.4630 0.5000 -15.0185
v  -13.4630 0.6667 -15.0185
v  -13.2963 0.6667 -15.0185
v  -13.6296 0.5000 -15.0185
v  -13.7963 0.5000 -15.0185
v  -13.7963 0.6667 -15.0185
v  -13.6296 0.6667 -15.0185
v  -13.9630 0.5000 -15.0185
v  -14.0880 0.5000 -14.9769
v  -14.0880 0.6667 -14.9769
v  -13.9630 0.6667 -15.0185
v  -13.2963 0.8333 -15.0185
v  -13.4630 0.8333 -15.0185
v  -13.6296 0.8333 -15.0185
v  -13.7963 0.8333 -15.0185
v  -13.9630 0.8333 -15.0185
v  -14.0880 0.8333 -14.9769
v  -14.1296 0.1667 -14.8519
v  -14.1296 0.1667 -14.6852
v  -14.1296 0.3333 -14.6852
v  -14.1296 0.3333 -14.8519
v  -14.1296 0.1667 -14.5185
v  -14.1296 0.1667 -14.3519
v  -14.1296 0.3333 -14.3519
v  -14.1296 0.3333 -14.5185
v  -14.1296 0.1667 -14.1852
v  -14.1296 0.3333 -14.1852
v  -14.1296 0.5000 -14.8519
v  -14.1296 0.5000 -14.6852
v  -14.1296 0.6667 -14.6852
v  -14.1296 0.6667 -14.8519
v  -14.1296 0.5000 -14.5185
v  -14.1296 0.5000 -14.3519
v  -14.1296 0.6667 -14.3519
v  -14.1296 0.6667 -14.5185
v  -14.1296 0.5000 -14.1852
v  -14.1296 0.6667 -14.1852
v  -14.1296 0.8333 -14.8519
v  -14.1296 0.8333 -14.6852
v  -14.1296 0.8333 -14.5185
v  -14.1296 0.8333 -14.3519
v  -14.1296 0.8333 -14.1852
# 218 vertices

vn -0.5774 -0.5774 0.5774
vn -0.6906 -0.6906 0.2146
vn -0.1559 -0.9754 0.1559
vn -0.2146 -0.6906 0.6906
vn -0.7071 -0.7071 0.0000
vn -0.1602 -0.9871 -0.0000
vn 0.0000 -1.0000 -0.0000
vn 0.0000 -0.9871 0.1602
vn 0.0000 -0.7071 0.7071
vn -0.0000 -0.7071 0.7071
vn 0.1559 -0.9754 0.1559
vn 0.2146 -0.6906 0.6906
vn 0.1602 -0.9871 -0.0000
vn 0.7071 -0.7071 -0.0000
vn 0.6906 -0.6906 0.2146
vn 0.5774 -0.5774 0.5774
vn -0.7071 -0.7071 -0.0000
vn 0.7071 -0.7071 0.0000
vn -0.6906 -0.6906 -0.2146
vn -0.1559 -0.9754 -0.1559
vn -0.5774 -0.5774 -0.5774
vn -0.2146 -0.6906 -0.6906
vn 0.0000 -0.7071 -0.7071
vn 0.0000 -0.9871 -0.1602
vn -0.0000 -0.7071 -0.7071
vn 0.1559 -0.9754 -0.1559
vn 0.2146 -0.6906 -0.6906
vn 0.5774 -0.5774 -0.5774
vn 0.6906 -0.6906 -0.2146
vn -0.5774 0.5774 0.5774
vn -0.2146 0.6906 0.6906
vn -0.1559 0.9754 0.1559
vn -0.6906 0.6906 0.2146
vn -0.0000 0.7070 0.7072
vn 0.0000 0.9871 0.1602
vn 0.0000 1.0000 -0.0000
vn -0.1602 0.9871 -0.0000
vn -0.7072 0.7070 -0.0000
vn 0.0000 0.7071 0.7071
vn 0.0000 0.7070 0.7072
vn 0.2146 0.6906 0.6906
vn 0.1559 0.9754 0.1559
vn 0.5774 0.5774 0.5774
vn 0.6906 0.6906 0.2146
vn 0.7071 0.7071 0.0000
vn 0.1602 0.9871 -0.0000
vn -0.7071 0.7071 0.0000
vn 0.7071 0.7071 -0.0000
vn -0.1559 0.9754 -0.1559
vn -0.6906 0.6906 -0.2146
vn 0.0000 0.9871 -0.1602
vn 0.0000 0.7070 -0.7072
vn -0.2146 0.6906 -0.6906
vn -0.5774 0.5774 -0.5774
vn -0.0000 0.7071 -0.7071
vn 0.1559 0.9754 -0.1559
vn 0.6906 0.6906 -0.2146
vn 0.5774 0.5773 -0.5774
vn 0.2146 0.6906 -0.6906
vn -0.1559 -0.1559 0.9754
vn -0.6906 -0.2146 0.6906
vn 0.0000 -0.1602 0.9871
vn 0.0000 0.0000 1.0000
vn -0.1602 0.0000 0.9871
vn -0.7071 -0.0000 0.7071
vn 0.1559 -0.1559 0.9754
vn 0.6906 -0.2146 0.6907
vn 0.7071 -0.0000 0.7071
vn 0.1602 0.0000 0.9871
vn -0.1559 0.1559 0.9754
vn -0.6906 0.2146 0.6906
vn 0.0000 0.1602 0.9871
vn 0.1559 0.1559 0.9754
vn 0.6906 0.2146 0.6907
vn 0.9754 -0.1559 0.1559
vn 0.9871 -0.1602 -0.0000
vn 1.0000 0.0000 -0.0000
vn 0.9871 0.0000 0.1602
vn 0.9754 -0.1559 -0.1559
vn 0.6906 -0.2146 -0.6906
vn 0.7071 0.0000 -0.7071
vn 0.9871 0.0000 -0.1602
vn 0.7071 -0.0000 -0.7071
vn 0.9754 0.1559 0.1559
vn 0.9871 0.1602 -0.0000
vn 0.9754 0.1559 -0.1559
vn 0.6907 0.2146 -0.6906
vn 0.1559 -0.1559 -0.9754
vn 0.0000 -0.1602 -0.9871
vn 0.0000 0.0000 -1.0000
vn 0.1602 0.0000 -0.9871
vn -0.1559 -0.1559 -0.9754
vn -0.6906 -0.2146 -0.6906
vn -0.7071 -0.0000 -0.7071
vn -0.1602 -0.0000 -0.9871
vn -0.1602 0.0000 -0.9871
vn 0.1559 0.1559 -0.9754
vn 0.0000 0.1602 -0.9871
vn -0.1559 0.1559 -0.9754
vn -0.6906 0.2146 -0.6906
vn -0.9754 -0.1559 -0.1559
vn -0.9871 -0.1602 -0.0000
vn -1.0000 0.0000 -0.0000
vn -0.9871 0.0000 -0.1602
vn -0.9754 -0.1559 0.1559
vn -0.9871 -0.0000 0.1602
vn -0.9871 0.0000 0.1602
vn -0.9754 0.1559 -0.1559
vn -0.9871 0.1602 -0.0000
vn -0.9754 0.1559 0.1559
# 110 vertex normals

vt 0.9259 0.0741 0.0741
vt 0.9583 0.1667 0.0417
vt 0.8333 0.1667 0.0000
vt 0.8333 0.0417 0.0417
vt 0.9583 0.3333 0.0417
vt 0.8333 0.3333 0.0000
vt 0.6667 0.3333 0.0000
vt 0.6667 0.1667 0.0000
vt 0.6667 0.0417 0.0417
vt 0.5000 0.1667 0.0000
vt 0.5000 0.0417 0.0417
vt 0.5000 0.3333 0.0000
vt 0.3333 0.3333 0.0000
vt 0.3333 0.1667 0.0000
vt 0.3333 0.0417 0.0417
vt 0.1667 0.1667 0.0000
vt 0.1667 0.0417 0.0417
vt 0.1667 0.3333 0.0000
vt 0.0417 0.3333 0.0417
vt 0.0417 0.1667 0.0417
vt 0.0741 0.0741 0.0741
vt 0.9583 0.5000 0.0417
vt 0.8333 0.5000 0.0000
vt 0.9583 0.6667 0.0417
vt 0.8333 0.6667 0.0000
vt 0.6667 0.6667 0.0000
vt 0.6667 0.5000 0.0000
vt 0.5000 0.5000 0.0000
vt 0.5000 0.6667 0.0000
vt 0.3333 0.6667 0.0000
vt 0.3333 0.5000 0.0000
vt 0.1667 0.5000 0.0000
vt 0.1667 0.6667 0.0000
vt 0.0417 0.6667 0.0417
vt 0.0417 0.5000 0.0417
vt 0.9583 0.8333 0.0417
vt 0.8333 0.8333 0.0000
vt 0.9259 0.9259 0.0741
vt 0.8333 0.9583 0.0417
vt 0.6667 0.9583 0.0417
vt 0.6667 0.8333 0.0000
vt 0.5000 0.8333 0.0000
vt 0.5000 0.9583 0.0417
vt 0.3333 0.9583 0.0417
vt 0.3333 0.8333 0.0000
vt 0.1667 0.8333 0.0000
vt 0.1667 0.9583 0.0417
vt 0.0741 0.9259 0.0741
vt 0.0417 0.8333 0.0417
vt 0.0741 0.0741 0.9259
vt 0.1667 0.0417 0.9583
vt 0.1667 0.1667 1.0000
vt 0.0417 0.1667 0.9583
vt 0.3333 0.0417 0.9583
vt 0.3333 0.1667 1.0000
vt 0.3333 0.3333 1.0000
vt 0.1667 0.3333 1.0000
vt 0.0417 0.3333 0.9583
vt 0.5000 0.0417 0.9583
vt 0.5000 0.1667 1.0000
vt 0.6667 0.0417 0.9583
vt 0.6667 0.1667 1.0000
vt 0.6667 0.3333 1.0000
vt 0.5000 0.3333 1.0000
vt 0.8333 0.0417 0.9583
vt 0.8333 0.1667 1.0000
vt 0.9259 0.0741 0.9259
vt 0.9583 0.1667 0.9583
vt 0.9583 0.3333 0.9583
vt 0.8333 0.3333 1.0000
vt 0.1667 0.5000 1.0000
vt 0.0417 0.5000 0.9583
vt 0.3333 0.5000 1.0000
vt 0.3333 0.6667 1.0000
vt 0.1667 0.6667 1.0000
vt 0.0417 0.6667 0.9583
vt 0.5000 0.5000 1.0000
vt 0.6667 0.5000 1.0000
vt 0.6667 0.6667 1.0000
vt 0.5000 0.6667 1.0000
vt 0.8333 0.5000 1.0000
vt 0.9583 0.5000 0.9583
vt 0.9583 0.6667 0.9583
vt 0.8333 0.6667 1.0000
vt 0.1667 0.8333 1.0000
vt 0.0417 0.8333 0.9583
vt 0.3333 0.8333 1.0000
vt 0.3333 0.9583 0.9583
vt 0.1667 0.9583 0.9583
vt 0.0741 0.9259 0.9259
vt 0.5000 0.8333 1.0000
vt 0.6667 0.8333 1.0000
vt 0.6667 0.9583 0.9583
vt 0.5000 0.9583 0.9583
vt 0.8333 0.8333 1.0000
vt 0.9583 0.8333 0.9583
vt 0.9259 0.9259 0.9259
vt 0.8333 0.9583 0.9583
# 98 texture coords

o Box001
g Box001
usemtl wire_153228153
s 1
f 1/1/1 2/2/2 3/3/3 4/4/4 
f 2/2/2 5/5/5 6/6/6 3/3/3 
f 7/7/7 8/8/8 3/3/3 6/6/6 
f 8/8/8 9/9/9 4/4/4 3/3/3 
f 9/9/9 8/8/8 10/10/8 11/11/10 
f 8/8/8 7/7/7 12/12/7 10/10/8 
f 13/13/7 14/14/8 10/10/8 12/12/7 
f 14/14/8 15/15/10 11/11/10 10/10/8 
f 15/15/10 14/14/8 16/16/11 17/17/12 
f 14/14/8 13/13/7 18/18/13 16/16/11 
f 19/19/14 20/20/15 16/16/11 18/18/13 
f 20/20/15 21/21/16 17/17/12 16/16/11 
f 5/5/5 22/22/17 23/23/6 6/6/6 
f 22/22/17 24/24/5 25/25/6 23/23/6 
f 26/26/7 27/27/7 23/23/6 25/25/6 
f 27/27/7 7/7/7 6/6/6 23/23/6 
f 7/7/7 27/27/7 28/28/7 12/12/7 
f 27/27/7 26/26/7 29/29/7 28/28/7 
f 30/30/7 31/31/7 28/28/7 29/29/7 
f 31/31/7 13/13/7 12/12/7 28/28/7 
f 13/13/7 31/31/7 32/32/13 18/18/13 
f 31/31/7 30/30/7 33/33/13 32/32/13 
f 34/34/18 35/35/14 32/32/13 33/33/13 
f 35/35/14 19/19/14 18/18/13 32/32/13 
f 24/24/5 36/36/19 37/37/20 25/25/6 
f 36/36/19 38/38/21 39/39/22 37/37/20 
f 40/40/23 41/41/24 37/37/20 39/39/22 
f 41/41/24 26/26/7 25/25/6 37/37/20 
f 26/26/7 41/41/24 42/42/24 29/29/7 
f 41/41/24 40/40/23 43/43/25 42/42/24 
f 44/44/25 45/45/24 42/42/24 43/43/25 
f 45/45/24 30/30/7 29/29/7 42/42/24 
f 30/30/7 45/45/24 46/46/26 33/33/13 
f 45/45/24 44/44/25 47/47/27 46/46/26 
f 48/48/28 49/49/29 46/46/26 47/47/27 
f 49/49/29 34/34/18 33/33/13 46/46/26 
f 50/50/30 51/51/31 52/52/32 53/53/33 
f 51/51/31 54/54/34 55/55/35 52/52/32 
f 56/56/36 57/57/37 52/52/32 55/55/35 
f 57/57/37 58/58/38 53/53/33 52/52/32 
f 54/54/34 59/59/39 60/60/35 55/55/35 
f 59/59/39 61/61/40 62/62/35 60/60/35 
f 63/63/36 64/64/36 60/60/35 62/62/35 
f 64/64/36 56/56/36 55/55/35 60/60/35 
f 61/61/40 65/65/41 66/66/42 62/62/35 
f 65/65/41 67/67/43 68/68/44 66/66/42 
f 69/69/45 70/70/46 66/66/42 68/68/44 
f 70/70/46 63/63/36 62/62/35 66/66/42 
f 58/58/38 57/57/37 71/71/37 72/72/47 
f 57/57/37 56/56/36 73/73/36 71/71/37 
f 74/74/36 75/75/37 71/71/37 73/73/36 
f 75/75/37 76/76/38 72/72/47 71/71/37 
f 56/56/36 64/64/36 77/77/36 73/73/36 
f 64/64/36 63/63/36 78/78/36 77/77/36 
f 79/79/36 80/80/36 77/77/36 78/78/36 
f 80/80/36 74/74/36 73/73/36 77/77/36 
f 63/63/36 70/70/46 81/81/46 78/78/36 
f 70/70/46 69/69/45 82/82/48 81/81/46 
f 83/83/48 84/84/46 81/81/46 82/82/48 
f 84/84/46 79/79/36 78/78/36 81/81/46 
f 76/76/38 75/75/37 85/85/49 86/86/50 
f 75/75/37 74/74/36 87/87/51 85/85/49 
f 88/88/52 89/89/53 85/85/49 87/87/51 
f 89/89/53 90/90/54 86/86/50 85/85/49 
f 74/74/36 80/80/36 91/91/51 87/87/51 
f 80/80/36 79/79/36 92/92/51 91/91/51 
f 93/93/52 94/94/55 91/91/51 92/92/51 
f 94/94/55 88/88/52 87/87/51 91/91/51 
f 79/79/36 84/84/46 95/95/56 92/92/51 
f 84/84/46 83/83/48 96/96/57 95/95/56 
f 97/97/58 98/98/59 95/95/56 96/96/57 
f 98/98/59 93/93/52 92/92/51 95/95/56 
f 1/21/1 4/17/4 99/16/60 100/20/61 
f 4/17/4 9/15/9 101/14/62 99/16/60 
f 102/13/63 103/18/64 99/16/60 101/14/62 
f 103/18/64 104/19/65 100/20/61 99/16/60 
f 9/15/9 11/11/10 105/10/62 101/14/62 
f 11/11/10 15/9/10 106/8/62 105/10/62 
f 107/7/63 108/12/63 105/10/62 106/8/62 
f 108/12/63 102/13/63 101/14/62 105/10/62 
f 15/9/10 17/4/12 109/3/66 106/8/62 
f 17/4/12 21/1/16 110/2/67 109/3/66 
f 111/5/68 112/6/69 109/3/66 110/2/67 
f 112/6/69 107/7/63 106/8/62 109/3/66 
f 104/19/65 103/18/64 113/32/64 114/35/65 
f 103/18/64 102/13/63 115/31/63 113/32/64 
f 116/30/63 117/33/64 113/32/64 115/31/63 
f 117/33/64 118/34/65 114/35/65 113/32/64 
f 102/13/63 108/12/63 119/28/63 115/31/63 
f 108/12/63 107/7/63 120/27/63 119/28/63 
f 121/26/63 122/29/63 119/28/63 120/27/63 
f 122/29/63 116/30/63 115/31/63 119/28/63 
f 107/7/63 112/6/69 123/23/69 120/27/63 
f 112/6/69 111/5/68 124/22/68 123/23/69 
f 125/24/68 126/25/69 123/23/69 124/22/68 
f 126/25/69 121/26/63 120/27/63 123/23/69 
f 118/34/65 117/33/64 127/46/70 128/49/71 
f 117/33/64 116/30/63 129/45/72 127/46/70 
f 54/44/34 51/47/31 127/46/70 129/45/72 
f 51/47/31 50/48/30 128/49/71 127/46/70 
f 116/30/63 122/29/63 130/42/72 129/45/72 
f 122/29/63 121/26/63 131/41/72 130/42/72 
f 61/40/40 59/43/39 130/42/72 131/41/72 
f 59/43/39 54/44/34 129/45/72 130/42/72 
f 121/26/63 126/25/69 132/37/73 131/41/72 
f 126/25/69 125/24/68 133/36/74 132/37/73 
f 67/38/43 65/39/41 132/37/73 133/36/74 
f 65/39/41 61/40/40 131/41/72 132/37/73 
f 21/50/16 20/51/15 134/52/75 110/53/67 
f 20/51/15 19/54/14 135/55/76 134/52/75 
f 136/56/77 137/57/78 134/52/75 135/55/76 
f 137/57/78 111/58/68 110/53/67 134/52/75 
f 19/54/14 35/59/14 138/60/76 135/55/76 
f 35/59/14 34/61/18 139/62/76 138/60/76 
f 140/63/77 141/64/77 138/60/76 139/62/76 
f 141/64/77 136/56/77 135/55/76 138/60/76 
f 34/61/18 49/65/29 142/66/79 139/62/76 
f 49/65/29 48/67/28 143/68/80 142/66/79 
f 144/69/81 145/70/82 142/66/79 143/68/80 
f 145/70/82 140/63/77 139/62/76 142/66/79 
f 111/58/68 137/57/78 146/71/78 124/72/68 
f 137/57/78 136/56/77 147/73/77 146/71/78 
f 148/74/77 149/75/78 146/71/78 147/73/77 
f 149/75/78 125/76/68 124/72/68 146/71/78 
f 136/56/77 141/64/77 150/77/77 147/73/77 
f 141/64/77 140/63/77 151/78/77 150/77/77 
f 152/79/77 153/80/77 150/77/77 151/78/77 
f 153/80/77 148/74/77 147/73/77 150/77/77 
f 140/63/77 145/70/82 154/81/82 151/78/77 
f 145/70/82 144/69/81 155/82/83 154/81/82 
f 156/83/83 157/84/82 154/81/82 155/82/83 
f 157/84/82 152/79/77 151/78/77 154/81/82 
f 125/76/68 149/75/78 158/85/84 133/86/74 
f 149/75/78 148/74/77 159/87/85 158/85/84 
f 69/88/45 68/89/44 158/85/84 159/87/85 
f 68/89/44 67/90/43 133/86/74 158/85/84 
f 148/74/77 153/80/77 160/91/85 159/87/85 
f 153/80/77 152/79/77 161/92/85 160/91/85 
f 83/93/48 82/94/48 160/91/85 161/92/85 
f 82/94/48 69/88/45 159/87/85 160/91/85 
f 152/79/77 157/84/82 162/95/86 161/92/85 
f 157/84/82 156/83/83 163/96/87 162/95/86 
f 97/97/58 96/98/57 162/95/86 163/96/87 
f 96/98/57 83/93/48 161/92/85 162/95/86 
f 48/50/28 47/51/27 164/52/88 143/53/80 
f 47/51/27 44/54/25 165/55/89 164/52/88 
f 166/56/90 167/57/91 164/52/88 165/55/89 
f 167/57/91 144/58/81 143/53/80 164/52/88 
f 44/54/25 43/59/25 168/60/89 165/55/89 
f 43/59/25 40/61/23 169/62/89 168/60/89 
f 170/63/90 171/64/90 168/60/89 169/62/89 
f 171/64/90 166/56/90 165/55/89 168/60/89 
f 40/61/23 39/65/22 172/66/92 169/62/89 
f 39/65/22 38/67/21 173/68/93 172/66/92 
f 174/69/94 175/70/95 172/66/92 173/68/93 
f 175/70/95 170/63/90 169/62/89 172/66/92 
f 144/58/81 167/57/91 176/71/91 155/72/83 
f 167/57/91 166/56/90 177/73/90 176/71/91 
f 178/74/90 179/75/91 176/71/91 177/73/90 
f 179/75/91 156/76/83 155/72/83 176/71/91 
f 166/56/90 171/64/90 180/77/90 177/73/90 
f 171/64/90 170/63/90 181/78/90 180/77/90 
f 182/79/90 183/80/90 180/77/90 181/78/90 
f 183/80/90 178/74/90 177/73/90 180/77/90 
f 170/63/90 175/70/95 184/81/95 181/78/90 
f 175/70/95 174/69/94 185/82/94 184/81/95 
f 186/83/94 187/84/96 184/81/95 185/82/94 
f 187/84/96 182/79/90 181/78/90 184/81/95 
f 156/76/83 179/75/91 188/85/97 163/86/87 
f 179/75/91 178/74/90 189/87/98 188/85/97 
f 93/88/52 98/89/59 188/85/97 189/87/98 
f 98/89/59 97/90/58 163/86/87 188/85/97 
f 178/74/90 183/80/90 190/91/98 189/87/98 
f 183/80/90 182/79/90 191/92/98 190/91/98 
f 88/93/52 94/94/55 190/91/98 191/92/98 
f 94/94/55 93/88/52 189/87/98 190/91/98 
f 182/79/90 187/84/96 192/95/99 191/92/98 
f 187/84/96 186/83/94 193/96/100 192/95/99 
f 90/97/54 89/98/53 192/95/99 193/96/100 
f 89/98/53 88/93/52 191/92/98 192/95/99 
f 38/21/21 36/17/19 194/16/101 173/20/93 
f 36/17/19 24/15/5 195/14/102 194/16/101 
f 196/13/103 197/18/104 194/16/101 195/14/102 
f 197/18/104 174/19/94 173/20/93 194/16/101 
f 24/15/5 22/11/17 198/10/102 195/14/102 
f 22/11/17 5/9/5 199/8/102 198/10/102 
f 200/7/103 201/12/103 198/10/102 199/8/102 
f 201/12/103 196/13/103 195/14/102 198/10/102 
f 5/9/5 2/4/2 202/3/105 199/8/102 
f 2/4/2 1/1/1 100/2/61 202/3/105 
f 104/5/65 203/6/106 202/3/105 100/2/61 
f 203/6/106 200/7/103 199/8/102 202/3/105 
f 174/19/94 197/18/104 204/32/104 185/35/94 
f 197/18/104 196/13/103 205/31/103 204/32/104 
f 206/30/103 207/33/104 204/32/104 205/31/103 
f 207/33/104 186/34/94 185/35/94 204/32/104 
f 196/13/103 201/12/103 208/28/103 205/31/103 
f 201/12/103 200/7/103 209/27/103 208/28/103 
f 210/26/103 211/29/103 208/28/103 209/27/103 
f 211/29/103 206/30/103 205/31/103 208/28/103 
f 200/7/103 203/6/106 212/23/106 209/27/103 
f 203/6/106 104/5/65 114/22/65 212/23/106 
f 118/24/65 213/25/107 212/23/106 114/22/65 
f 213/25/107 210/26/103 209/27/103 212/23/106 
f 186/34/94 207/33/104 214/46/108 193/49/100 
f 207/33/104 206/30/103 215/45/109 214/46/108 
f 76/44/38 86/47/50 214/46/108 215/45/109 
f 86/47/50 90/48/54 193/49/100 214/46/108 
f 206/30/103 211/29/103 216/42/109 215/45/109 
f 211/29/103 210/26/103 217/41/109 216/42/109 
f 58/40/38 72/43/47 216/42/109 217/41/109 
f 72/43/47 76/44/38 215/45/109 216/42/109 
f 210/26/103 213/25/107 218/37/110 217/41/109 
f 213/25/107 118/24/65 128/36/71 218/37/110 
f 50/38/30 53/39/33 218/37/110 128/36/71 
f 53/39/33 58/40/38 217/41/109 218/37/110 
# 216 polygons

